<!DOCTYPE svg PUBLIC "-//W3C//DTD SVG 1.1//EN" "http://www.w3.org/Graphics/SVG/1.1/DTD/svg11.dtd">
<!-- Uploaded to: SVG Repo, www.svgrepo.com, Transformed by: SVG Repo Mixer Tools -->
<svg height="800px" width="800px" version="1.1" id="Layer_1" xmlns="http://www.w3.org/2000/svg" xmlns:xlink="http://www.w3.org/1999/xlink" viewBox="0 0 511.992 511.992" xml:space="preserve" fill="#000000">
<g id="SVGRepo_bgCarrier" stroke-width="0"/>
<g id="SVGRepo_tracerCarrier" stroke-linecap="round" stroke-linejoin="round"/>
<g id="SVGRepo_iconCarrier"> <path style="fill:#434A54;" d="M341.334,362.65H170.658L42.66,106.662C42.66,106.662,127.987,0,255.984,0 C383.99,0,469.332,106.662,469.332,106.662L341.334,362.65z"/> <g> <path style="fill:#656D78;" d="M255.984,31.999c101.162,0,175.692,66.631,202.473,94.561l10.875-19.898 c0,0-85.342-106.662-213.348-106.662C127.986,0,42.66,106.662,42.66,106.662l10.859,19.898 C80.3,98.631,154.814,31.999,255.984,31.999z"/> <path style="fill:#656D78;" d="M319.991,277.323c-4.562,0-8.469,2.891-9.969,6.922h-0.031l-29.405,78.405h22.781l26.593-70.905 v-0.016c0.438-1.172,0.688-2.422,0.688-3.734C330.647,282.089,325.866,277.323,319.991,277.323z"/> <path style="fill:#656D78;" d="M255.984,255.996c-5.891,0-10.656,4.773-10.656,10.664v95.99h21.328v-95.99 C266.656,260.769,261.875,255.996,255.984,255.996z"/> <path style="fill:#656D78;" d="M202.438,284.292h-0.016c-1.5-4.062-5.406-6.969-9.984-6.969c-5.89,0-10.671,4.766-10.671,10.672 c0,1.297,0.25,2.531,0.672,3.688h-0.016l26.25,70.968h22.75L202.438,284.292z"/> </g> <path style="fill:#DA4453;" d="M170.658,362.65v138.67c0,5.891,4.781,10.672,10.672,10.672h149.318 c5.905,0,10.687-4.781,10.687-10.672V362.65H170.658z"/> <g> <path style="fill:#DA4453;" d="M319.991,362.65c0,5.906,4.781,10.672,10.656,10.672c5.905,0,10.687-4.766,10.687-10.672H319.991z"/> <path style="fill:#DA4453;" d="M309.335,373.322c5.875,0,10.656-4.766,10.656-10.672h-21.343 C298.648,368.557,303.43,373.322,309.335,373.322z"/> <path style="fill:#DA4453;" d="M287.992,373.322c5.875,0,10.656-4.766,10.656-10.672h-21.312 C277.336,368.557,282.086,373.322,287.992,373.322z"/> <path style="fill:#DA4453;" d="M266.656,373.322c5.898,0,10.68-4.766,10.68-10.672h-21.352 C255.984,368.557,260.766,373.322,266.656,373.322z"/> <path style="fill:#DA4453;" d="M245.329,373.322c5.89,0,10.656-4.766,10.656-10.672h-21.328 C234.657,368.557,239.438,373.322,245.329,373.322z"/> <path style="fill:#DA4453;" d="M223.985,373.322c5.891,0,10.672-4.766,10.672-10.672h-21.328 C213.329,368.557,218.095,373.322,223.985,373.322z"/> <path style="fill:#DA4453;" d="M202.657,373.322c5.891,0,10.672-4.766,10.672-10.672h-21.344 C191.985,368.557,196.767,373.322,202.657,373.322z"/> <path style="fill:#DA4453;" d="M181.329,373.322c5.891,0,10.656-4.766,10.656-10.672h-21.328 C170.658,368.557,175.439,373.322,181.329,373.322z"/> <path style="fill:#DA4453;" d="M170.658,490.648v10.672c0,5.891,4.781,10.672,10.672,10.672h149.318 c5.905,0,10.687-4.781,10.687-10.672v-10.672H170.658z"/> </g> </g>
</svg>